<svg xmlns="http://www.w3.org/2000/svg" width="64" height="64" fill="#f0424d" viewBox="-3.22 -4.4 66.773 66.338"><path d="M51.727 55.793c-2.427-1.3-3.813-2.746-4.12-4.326-.296-1.53.387-3.232 2.088-5.204a25.68 25.68 0 0 0 6.307-16.88C56.002 15.2 44.462 3.66 30.28 3.66h-.23C15.866 3.66 4.33 15.2 4.33 29.383a25.68 25.68 0 0 0 6.308 16.881c1.715 1.985 2.38 3.618 2.096 5.134-.295 1.578-1.684 3.054-4.132 4.392-3.754-3.13-7.073-7.308-9.12-11.5a34.6 34.6 0 0 1-2.542-7.14 34 34 0 0 1-.9-7.765 33.8 33.8 0 0 1 2.67-13.237A33.9 33.9 0 0 1 6.008 5.341a33.9 33.9 0 0 1 10.806-7.286A33.8 33.8 0 0 1 30.05-4.618h.23a33.8 33.8 0 0 1 13.238 2.673A33.9 33.9 0 0 1 54.324 5.34a33.9 33.9 0 0 1 7.287 10.806 33.8 33.8 0 0 1 2.673 13.237 34.2 34.2 0 0 1-.892 7.765 33.7 33.7 0 0 1-2.543 7.14c-2.047 4.194-5.364 8.373-9.123 11.503M39.18 62.155c-.395-.25-1.745-1.253-3.06-3.076-1.262-1.742-2.748-4.632-2.67-8.502.05-2.33.516-4.597 1.4-6.74a19.2 19.2 0 0 1 3.7-5.78l.01-.013.35-.405c.6-.695 1.218-1.412 1.712-2.252a11.7 11.7 0 0 0 1.315-3.226 12.1 12.1 0 0 0 .066-5.257c-.335-1.586-1-3.123-1.95-4.448a12.1 12.1 0 0 0-3.438-3.238 12 12 0 0 0-4.626-1.685 12 12 0 0 0-1.693-.12h-.244a12 12 0 0 0-1.691.12 12 12 0 0 0-4.626 1.685 12.1 12.1 0 0 0-3.44 3.238 12.1 12.1 0 0 0-1.95 4.448 12.1 12.1 0 0 0 .068 5.257c.262 1.1.706 2.194 1.313 3.226.496.84 1.114 1.557 1.713 2.252l.352.405.007.013a19.1 19.1 0 0 1 3.703 5.78c.875 2.14 1.343 4.4 1.4 6.74.08 3.87-1.407 6.76-2.668 8.502-1.32 1.823-2.667 2.827-3.063 3.076l-1.97-.593a34 34 0 0 1-5.665-2.497 9.67 9.67 0 0 0 5.084-8.496c0-2.355-.915-4.613-2.72-6.7-.027-.032-.055-.058-.075-.08l-.54-.592-1.448-1.696a20.3 20.3 0 0 1-3.469-7.414 20.4 20.4 0 0 1-.112-8.882 20.4 20.4 0 0 1 3.301-7.537 20.5 20.5 0 0 1 5.807-5.469 20.3 20.3 0 0 1 7.84-2.856 20 20 0 0 1 2.853-.2h.256a20 20 0 0 1 2.854.2 20.35 20.35 0 0 1 7.841 2.856 20.5 20.5 0 0 1 5.808 5.47 20.4 20.4 0 0 1 3.303 7.537 20.5 20.5 0 0 1-.113 8.882 20.3 20.3 0 0 1-3.472 7.414c-.44.6-.93 1.127-1.45 1.696l-.523.577-.016.014c-.02.02-.05.048-.075.083-1.83 2.2-2.72 4.383-2.72 6.706a9.67 9.67 0 0 0 5.088 8.496 34 34 0 0 1-5.666 2.497l-1.973.593M30.165 36.42c-3.7 0-6.713-3.012-6.713-6.713s3.012-6.714 6.713-6.714 6.712 3.012 6.712 6.714a6.72 6.72 0 0 1-6.712 6.713"/></svg>