<svg xmlns="http://www.w3.org/2000/svg" xml:space="preserve" viewBox="0 0 121.85 126.24"><path fill="#2e7de9" d="m5.27 44.71 22.38-26.77H12.93c-1.27 0-2.47-.16-3.59-.49-.66-.19-1.27-.44-1.83-.73a8.4 8.4 0 0 1-1.57-1.08l-.03-.02c-.48-.42-.9-.87-1.27-1.37-.36-.5-.68-1.04-.93-1.62a9.475 9.475 0 0 1-.72-3.56c0-.62.06-1.23.17-1.82.12-.6.29-1.18.52-1.74.24-.58.55-1.13.9-1.64.36-.51.77-.98 1.24-1.42l.04-.03c.47-.43.99-.8 1.56-1.12C8 .99 8.61.72 9.27.52c.57-.17 1.16-.31 1.77-.39.62-.09 1.25-.13 1.89-.13h31.91q2.43 0 4.38.66c1.33.45 2.49 1.14 3.47 2.05 1.02.95 1.79 2.09 2.3 3.41.5 1.29.75 2.75.75 4.36 0 1.26-.13 2.45-.39 3.55a10.95 10.95 0 0 1-1.38 3.36c-.22.35-.49.74-.8 1.17-.27.38-.63.85-1.06 1.39l-1.28 1.6-21.86 26.03h19.64q.915 0 1.83.12c.58.07 1.16.19 1.72.34.66.18 1.26.42 1.81.69.55.28 1.06.62 1.54 1.01l.03.03c.51.42.95.88 1.33 1.39.39.52.71 1.07.96 1.66l.11.29c.2.5.34 1.04.44 1.6s.15 1.13.15 1.7c0 .62-.06 1.24-.17 1.84s-.28 1.18-.5 1.73c-.24.59-.54 1.15-.91 1.67s-.79 1.01-1.27 1.44l-.06.05c-.47.42-1 .8-1.57 1.11-.56.31-1.16.56-1.81.76l-.23.06c-.52.14-1.07.25-1.64.32-.59.07-1.19.11-1.78.11H12.16c-1.66 0-3.19-.21-4.58-.62h-.01c-.78-.23-1.52-.53-2.2-.91-.69-.38-1.33-.82-1.89-1.33-.57-.51-1.08-1.07-1.52-1.68S1.15 59.7.86 59c-.29-.68-.5-1.39-.64-2.1a10.708 10.708 0 0 1-.06-4c.11-.59.27-1.16.48-1.7l.03-.08c.08-.21.17-.43.27-.64l.31-.61.36-.61c.15-.21.3-.44.46-.65l-.05-.04zm7.21 66.62 14.9-17.82h-9.34c-.91 0-1.76-.12-2.57-.35-.48-.14-.93-.32-1.33-.53-.41-.22-.8-.49-1.15-.79l-.05-.05c-.34-.29-.64-.62-.89-.97a6.25 6.25 0 0 1-1.08-2.45c-.09-.44-.14-.89-.14-1.34s.04-.89.13-1.32c.09-.44.21-.86.38-1.27a6.225 6.225 0 0 1 1.57-2.23l.01-.02c.35-.32.73-.59 1.15-.83.42-.23.87-.42 1.34-.57.41-.13.84-.22 1.28-.28q.675-.09 1.35-.09H40c1.15 0 2.2.16 3.13.48.96.33 1.81.82 2.52 1.49a6.6 6.6 0 0 1 1.68 2.48c.36.93.54 1.98.54 3.13 0 .43-.02.86-.07 1.3-.05.43-.12.84-.2 1.23-.1.43-.24.85-.4 1.26-.16.4-.36.79-.59 1.15-.14.24-.33.51-.56.83l-.73.97-.88 1.1-14.56 17.32h12.73c.43 0 .86.03 1.31.08.43.05.84.14 1.23.24.48.13.92.3 1.31.5.41.21.79.46 1.15.76a5.9 5.9 0 0 1 1.69 2.24l.08.22c.14.37.25.76.32 1.17.08.41.11.83.11 1.23 0 .45-.04.89-.12 1.33s-.2.86-.37 1.26c-.17.43-.4.84-.67 1.22-.27.39-.58.74-.92 1.05l-.04.04c-.35.31-.73.58-1.15.81-.4.22-.84.4-1.31.55l-.18.05c-.37.1-.76.18-1.17.23-.43.05-.86.08-1.27.08H17.5c-.57 0-1.13-.04-1.69-.11-.55-.07-1.07-.19-1.57-.33-.57-.17-1.1-.39-1.6-.66-.49-.27-.95-.59-1.37-.96s-.78-.77-1.1-1.21c-.32-.43-.58-.91-.8-1.42-.21-.5-.36-1-.47-1.52-.1-.52-.15-1.06-.15-1.61a6.978 6.978 0 0 1 .47-2.52c.08-.15.15-.35.22-.51l.22-.44.41-.65-.05-.04zm58.04-36.44 21.47-25.68H77.93c-.6 0-1.2-.04-1.79-.12-.58-.08-1.14-.2-1.67-.35-.63-.18-1.22-.42-1.76-.7-.55-.29-1.06-.64-1.52-1.04l-.06-.06c-.45-.39-.84-.82-1.18-1.28-.36-.48-.66-1.01-.9-1.57-.23-.53-.41-1.09-.53-1.68a9 9 0 0 1-.18-1.77c0-.6.06-1.19.17-1.77s.28-1.14.51-1.67c.23-.56.53-1.09.87-1.58.34-.48.74-.94 1.2-1.36l.02-.02c.46-.42.97-.79 1.52-1.1s1.15-.56 1.78-.75c.56-.17 1.13-.3 1.71-.38.59-.08 1.2-.13 1.82-.13h30.7c1.56 0 2.97.21 4.23.64q1.935.66 3.36 1.98c.99.92 1.73 2.02 2.23 3.3.48 1.25.73 2.65.73 4.21 0 1.22-.12 2.36-.37 3.42-.14.58-.32 1.15-.54 1.7a9.7 9.7 0 0 1-.79 1.54c-.2.32-.46.7-.77 1.13-.29.41-.63.86-1.01 1.34l-1.23 1.53c-.38.47-.84 1.02-1.38 1.66L93.5 77.65h18.8c1.22 0 2.37.15 3.42.44.62.17 1.2.4 1.74.67.55.28 1.06.61 1.53 1l.02.02c.49.41.91.85 1.27 1.33.37.5.69 1.04.93 1.61l.1.27c.19.49.34 1.01.44 1.55.1.55.15 1.1.15 1.64 0 .6-.06 1.2-.16 1.78-.11.58-.27 1.14-.49 1.67-.23.57-.52 1.11-.88 1.62-.35.5-.76.96-1.22 1.39l-.06.06c-.46.42-.97.78-1.51 1.07-.54.3-1.12.54-1.74.73l-.22.06c-.52.14-1.06.25-1.6.32-.55.07-1.12.1-1.71.1H77.19c-.78 0-1.55-.05-2.3-.15-.74-.1-1.45-.25-2.12-.45h-.01c-.75-.22-1.47-.52-2.13-.87-.66-.36-1.27-.79-1.82-1.28-.56-.49-1.05-1.04-1.48-1.62a10 10 0 0 1-1.07-1.9c-.27-.66-.48-1.33-.62-2.03q-.21-1.05-.21-2.16c0-.57.05-1.15.16-1.72.1-.56.26-1.11.46-1.64.05-.19.21-.51.29-.7l.3-.59c.1-.19.22-.39.35-.59.15-.21.3-.44.46-.65l-.05-.04z"/></svg>